<svg width="50" height="50" viewBox="0 0 50 50" fill="none" xmlns="http://www.w3.org/2000/svg">
<g clip-path="url(#clip0_41_219)">
<path d="M24.9754 -0.0203174C24.5617 -0.0138471 24.1675 0.156419 23.8791 0.453142C23.5908 0.749865 23.4319 1.14882 23.4373 1.56253V4.68753C23.4344 4.89458 23.4726 5.10014 23.5498 5.29228C23.627 5.48442 23.7417 5.6593 23.887 5.80675C24.0324 5.9542 24.2057 6.07129 24.3967 6.15121C24.5877 6.23113 24.7927 6.27228 24.9998 6.27228C25.2069 6.27228 25.4119 6.23113 25.6029 6.15121C25.7939 6.07129 25.9672 5.9542 26.1125 5.80675C26.2579 5.6593 26.3725 5.48442 26.4498 5.29228C26.527 5.10014 26.5652 4.89458 26.5623 4.68753V1.56253C26.565 1.35357 26.5258 1.14618 26.447 0.952643C26.3681 0.759105 26.2513 0.583346 26.1033 0.435766C25.9554 0.288185 25.7793 0.171782 25.5856 0.0934428C25.3918 0.0151037 25.1843 -0.0235793 24.9754 -0.0203174ZM8.41044 6.84817C8.09922 6.84823 7.79512 6.94122 7.53709 7.11522C7.27906 7.28922 7.07886 7.5363 6.96215 7.8248C6.84543 8.1133 6.81753 8.43008 6.882 8.73454C6.94647 9.03901 7.10038 9.31729 7.32401 9.53372L9.53348 11.7432C9.67746 11.8931 9.84991 12.0129 10.0407 12.0953C10.2316 12.1778 10.4369 12.2214 10.6448 12.2235C10.8527 12.2256 11.0589 12.1862 11.2513 12.1077C11.4438 12.0291 11.6187 11.9129 11.7657 11.7659C11.9127 11.6189 12.0288 11.444 12.1074 11.2516C12.186 11.0591 12.2254 10.8529 12.2233 10.645C12.2212 10.4372 12.1776 10.2318 12.0951 10.041C12.0126 9.85015 11.8929 9.6777 11.743 9.53372L9.53348 7.32425C9.38777 7.17365 9.21326 7.05389 9.02033 6.9721C8.8274 6.89032 8.61999 6.84817 8.41044 6.84817ZM41.5403 6.84817C41.1339 6.86107 40.7486 7.03185 40.4661 7.32425L38.2566 9.53372C38.1067 9.6777 37.987 9.85015 37.9045 10.041C37.822 10.2318 37.7784 10.4372 37.7763 10.645C37.7742 10.8529 37.8136 11.0591 37.8922 11.2516C37.9707 11.444 38.0869 11.6189 38.2339 11.7659C38.3809 11.9129 38.5558 12.0291 38.7482 12.1076C38.9407 12.1862 39.1469 12.2256 39.3548 12.2235C39.5627 12.2214 39.768 12.1778 39.9588 12.0953C40.1497 12.0129 40.3221 11.8931 40.4661 11.7432L42.6756 9.53372C42.9025 9.31444 43.0577 9.03161 43.1207 8.72244C43.1838 8.41327 43.1518 8.09224 43.029 7.8016C42.9061 7.51096 42.6981 7.26433 42.4324 7.09415C42.1667 6.92397 41.8557 6.83821 41.5403 6.84817ZM24.9998 10.4167C16.9641 10.4167 10.4165 16.9644 10.4165 25C10.4165 33.0357 16.9641 39.5834 24.9998 39.5834C33.0354 39.5834 39.5831 33.0357 39.5831 25C39.5831 16.9644 33.0354 10.4167 24.9998 10.4167ZM24.9998 13.5417C31.3466 13.5417 36.4581 18.6533 36.4581 25C36.4581 31.3468 31.3466 36.4584 24.9998 36.4584C18.653 36.4584 13.5415 31.3468 13.5415 25C13.5415 18.6533 18.653 13.5417 24.9998 13.5417ZM1.56229 23.4375C1.35524 23.4346 1.14968 23.4729 0.957538 23.5501C0.7654 23.6273 0.590524 23.7419 0.443071 23.8873C0.295618 24.0327 0.178531 24.2059 0.0986124 24.3969C0.0186941 24.588 -0.0224609 24.793 -0.0224609 25C-0.0224609 25.2071 0.0186941 25.4121 0.0986124 25.6031C0.178531 25.7942 0.295618 25.9674 0.443071 26.1128C0.590524 26.2582 0.7654 26.3728 0.957538 26.45C1.14968 26.5272 1.35524 26.5655 1.56229 26.5625H4.68729C4.89434 26.5655 5.09991 26.5272 5.29205 26.45C5.48419 26.3728 5.65906 26.2582 5.80651 26.1128C5.95397 25.9674 6.07105 25.7942 6.15097 25.6031C6.23089 25.4121 6.27205 25.2071 6.27205 25C6.27205 24.793 6.23089 24.588 6.15097 24.3969C6.07105 24.2059 5.95397 24.0327 5.80651 23.8873C5.65906 23.7419 5.48419 23.6273 5.29205 23.5501C5.09991 23.4729 4.89434 23.4346 4.68729 23.4375H1.56229ZM45.3123 23.4375C45.1052 23.4346 44.8997 23.4729 44.7075 23.5501C44.5154 23.6273 44.3405 23.7419 44.1931 23.8873C44.0456 24.0327 43.9285 24.2059 43.8486 24.3969C43.7687 24.588 43.7275 24.793 43.7275 25C43.7275 25.2071 43.7687 25.4121 43.8486 25.6031C43.9285 25.7942 44.0456 25.9674 44.1931 26.1128C44.3405 26.2582 44.5154 26.3728 44.7075 26.45C44.8997 26.5272 45.1052 26.5655 45.3123 26.5625H48.4373C48.6443 26.5655 48.8499 26.5272 49.042 26.45C49.2342 26.3728 49.4091 26.2582 49.5565 26.1128C49.704 25.9674 49.8211 25.7942 49.901 25.6031C49.9809 25.4121 50.022 25.2071 50.022 25C50.022 24.793 49.9809 24.588 49.901 24.3969C49.8211 24.2059 49.704 24.0327 49.5565 23.8873C49.4091 23.7419 49.2342 23.6273 49.042 23.5501C48.8499 23.4729 48.6443 23.4346 48.4373 23.4375H45.3123ZM10.6077 37.7849C10.2019 37.7967 9.81665 37.966 9.53348 38.2569L7.32401 40.4663C7.17406 40.6103 7.05434 40.7828 6.97186 40.9736C6.88939 41.1644 6.84582 41.3698 6.84371 41.5777C6.84159 41.7855 6.88098 41.9917 6.95955 42.1842C7.03813 42.3767 7.15432 42.5515 7.30132 42.6985C7.44831 42.8455 7.62316 42.9617 7.81563 43.0403C8.00809 43.1188 8.21429 43.1582 8.42217 43.1561C8.63004 43.154 8.83541 43.1104 9.02623 43.028C9.21706 42.9455 9.38951 42.8258 9.53348 42.6758L11.743 40.4663C11.9684 40.2468 12.1223 39.9643 12.1845 39.6559C12.2467 39.3474 12.2144 39.0274 12.0917 38.7376C11.969 38.4479 11.7617 38.2019 11.4969 38.0319C11.2322 37.8619 10.9222 37.7758 10.6077 37.7849ZM39.3471 37.7849C39.0364 37.7849 38.7328 37.8777 38.475 38.0511C38.2173 38.2246 38.0171 38.471 37.9 38.7588C37.783 39.0467 37.7544 39.3628 37.8179 39.667C37.8814 39.9711 38.0342 40.2494 38.2566 40.4663L40.4661 42.6758C40.6101 42.8258 40.7825 42.9455 40.9734 43.028C41.1642 43.1104 41.3695 43.154 41.5774 43.1561C41.7853 43.1582 41.9915 43.1188 42.184 43.0403C42.3764 42.9617 42.5513 42.8455 42.6983 42.6985C42.8453 42.5515 42.9614 42.3767 43.04 42.1842C43.1186 41.9917 43.158 41.7855 43.1559 41.5777C43.1538 41.3698 43.1102 41.1644 43.0277 40.9736C42.9452 40.7828 42.8255 40.6103 42.6756 40.4663L40.4661 38.2569C40.3205 38.1075 40.1465 37.9888 39.9543 37.9077C39.7622 37.8266 39.5557 37.7849 39.3471 37.7849ZM24.9754 43.7297C24.5617 43.7362 24.1675 43.9064 23.8791 44.2031C23.5908 44.4999 23.4319 44.8988 23.4373 45.3125V48.4375C23.4344 48.6446 23.4726 48.8501 23.5498 49.0423C23.627 49.2344 23.7417 49.4093 23.887 49.5567C24.0324 49.7042 24.2057 49.8213 24.3967 49.9012C24.5877 49.9811 24.7927 50.0223 24.9998 50.0223C25.2069 50.0223 25.4119 49.9811 25.6029 49.9012C25.7939 49.8213 25.9672 49.7042 26.1125 49.5567C26.2579 49.4093 26.3725 49.2344 26.4498 49.0423C26.527 48.8501 26.5652 48.6446 26.5623 48.4375V45.3125C26.565 45.1036 26.5258 44.8962 26.447 44.7026C26.3681 44.5091 26.2513 44.3333 26.1033 44.1858C25.9554 44.0382 25.7793 43.9218 25.5856 43.8434C25.3918 43.7651 25.1843 43.7264 24.9754 43.7297Z" fill="#E8A4FF"/>
</g>
<defs>
<clipPath id="clip0_41_219">
<rect width="50" height="50" fill="white"/>
</clipPath>
</defs>
</svg>
