<svg width="142" height="54" viewBox="0 0 142 54" fill="none" xmlns="http://www.w3.org/2000/svg">
<path d="M67 51.6801C78.0007 41.596 105.905 37.2829 112 41" stroke="#68127D" stroke-width="4" stroke-linecap="round"/>
<path d="M7.74996 27.6562C2.38277 25.483 1.93746 19.0142 3.2734 15.4347C6.41401 7.15058 18.7187 2.03694 29.3594 2.11364C49.5156 2.26705 51.719 19.8835 36.1328 29.4971C28 34.483 17.125 37.4233 8.64056 37.4233C3.50777 37.4233 3.50777 31.4148 5.35936 31.7983C12.1562 33.2301 25.1172 30.4176 33.6015 25.0483C45.3437 17.6847 45.2969 6.46025 28.6562 7.07389C19.8906 7.38065 9.55466 11.2415 7.02341 17.2244C6.03901 19.5256 6.53121 22.7216 11.9922 23.9488C13.2812 24.2557 11.5937 29.2159 7.74996 27.6562ZM21.5078 12.4688C23.7578 9.8352 30.1797 10.9603 27.8359 13.3892C22.8203 18.6562 20.1953 23.4886 19.4453 27.0682C19.3047 27.7585 18.6719 27.7585 18.0625 27.4773C12.8828 25.125 18.5312 15.9205 21.5078 12.4688ZM47.0547 20.8295C48.5781 18.6818 52.8905 19.9603 52.0235 21.4176C50.6875 23.7188 49.0703 26.9148 47.9687 29.3182C47.2187 30.929 47.2422 32.5142 49.1172 30.9801C50.969 29.4716 53.8515 25.5597 54.578 24.4091C55.258 23.3097 56.617 23.0029 55.914 24.8949C54.9295 27.4517 51.6015 32.1307 49.0937 33.6648C45.2734 36.0426 40.8906 33.9205 43.3047 27.9886C44.2656 25.6364 45.6015 22.9261 47.0547 20.8295ZM49.7969 14.0284C50.8515 12.3409 52.7735 11.5739 54.1095 12.2897C55.4455 13.0057 55.6795 14.9488 54.6485 16.6364C53.594 18.3239 51.672 19.0909 50.336 18.375C49 17.6591 48.7656 15.7159 49.7969 14.0284ZM64.5155 25.0739C60.156 23.2074 56.1955 25.4318 59.3595 26.4034C61.586 27.1193 64.586 28.4744 64.1875 30.929C63.6015 34.7642 53.922 36.017 52.375 31.5682C52.0235 30.5966 52.5155 29.4971 53.4295 30.0085C56.6405 31.7983 62.8515 30.0341 57.508 28.2188C49.3281 25.4574 56.5235 18.1193 64.211 20.4716C66.6955 21.2386 65.969 25.6875 64.5155 25.0739ZM65.242 30.0852C67.8205 21.7244 75.6955 7.86649 81.2265 3.49432C85.0705 0.426137 89.1485 2.44603 86.8515 7.43182C84.4845 12.6221 78.156 18.375 74.547 21.0852C73.914 22.3892 73.3985 23.4631 72.9765 24.3835C75.086 23.0284 78.25 20.983 78.8595 19.5C79.539 17.8892 83.992 20.267 82.375 22.6705C81.133 24.5114 77.922 25.9943 74.8515 27.0938C75.4845 30.5966 79.914 30.0085 84.672 23.6932C85.117 23.0795 86.1955 23.3352 85.797 24.2812C82.164 33.3068 72.0155 37.8068 71.4295 28.0653C70.961 29.3182 70.75 30.1364 70.258 31.517C69.578 33.3835 64.422 32.7699 65.242 30.0852ZM76.867 16.3807C80.4765 12.3921 82.469 10.7557 84.039 7.94318C84.906 6.35793 84.742 5.74429 83.3125 7.38066C80.969 10.0909 77.242 15.5881 76.867 16.3807ZM87.3205 28.0653C85.469 32.2585 91.469 34.2784 98.711 24.3835C99.461 23.3608 100.984 23.5909 100.117 25.0483C94.8205 34.1761 87.8125 36.4773 84.625 34.3807C79.867 31.2358 83.4765 23.0029 87.836 20.7017C92.219 18.4261 97.6795 21.0597 95.453 25.4318C93.3205 29.6506 88.5155 30.5455 87.3205 28.0653ZM87.9295 26.8381C89.758 27.6818 91.7265 25.7131 92.5705 24.0767C93.25 22.7216 92.8045 21.6733 91.1875 22.9261C90.531 23.4375 88.867 25.1761 87.9295 26.8381ZM118.258 18.4517C121.867 14.4631 124.75 10.7557 126.32 7.94318C127.211 6.35793 127.047 5.74429 125.617 7.38066C123.273 10.0909 118.633 17.6591 118.258 18.4517ZM105.226 18.4517C108.836 14.4631 111.719 10.7557 113.289 7.94318C114.179 6.35793 114.015 5.74429 112.586 7.38066C110.242 10.0909 105.601 17.6591 105.226 18.4517ZM107.969 18.6051C110.383 18.4261 112.469 18.5795 113.406 18.6562C116.101 12.4688 119.969 6.12786 123.508 3.46875C127.445 0.502842 131.429 2.42046 129.133 7.43182C127.492 10.9858 123.836 15.6648 120.508 19.1421C121.023 19.2955 121.492 19.5 121.89 19.7557C123.109 20.5227 123.062 22.2614 122.711 23.1051C122.547 23.4886 122.312 23.5653 122.125 23.5397C120.414 23.1818 118.375 23.0284 116.312 23.1051C114.953 25.483 113.148 32.7955 118.703 29.625C120.648 28.5 123.695 25.0483 124.117 24.5369C125.008 23.4631 125.898 23.4631 124.961 25.4318C124.164 27.1193 121.539 30.571 119.758 32.1307C115.328 36.0426 109.375 34.0994 110.289 28.0397C109.187 29.5739 107.804 31.1847 106.726 32.1307C102.273 36.0426 96.297 34.0994 97.258 27.9886C97.4455 26.7614 97.8205 25.2784 98.3595 23.6676C98.1485 23.7188 97.961 23.7699 97.7735 23.7955C95.992 24.2301 96.5545 19.5 98.1955 19.1932C98.758 19.0909 99.4375 18.9886 100.211 18.9119C102.906 12.7244 106.937 6.12786 110.476 3.46875C114.414 0.502842 118.398 2.42046 116.101 7.43182C114.531 10.8068 111.156 15.2045 107.969 18.6051ZM111.531 23.233C111.344 23.2841 108.367 23.0795 103.117 23.4119C101.781 26.071 100.351 32.6676 105.672 29.625C107.617 28.5 109.937 25.9943 111.531 23.233ZM126.32 28.0653C124.469 32.2585 130.469 34.2784 137.711 24.3835C138.461 23.3608 139.984 23.5909 139.117 25.0483C133.82 34.1761 126.812 36.4773 123.625 34.3807C118.867 31.2358 122.476 23.0029 126.836 20.7017C131.219 18.4261 136.679 21.0597 134.453 25.4318C132.32 29.6506 127.515 30.5455 126.32 28.0653ZM126.929 26.8381C128.758 27.6818 130.726 25.7131 131.57 24.0767C132.25 22.7216 131.804 21.6733 130.187 22.9261C129.531 23.4375 127.867 25.1761 126.929 26.8381Z" fill="#68127D"/>
</svg>
