<svg width="284" height="77" viewBox="0 0 284 77" fill="none" xmlns="http://www.w3.org/2000/svg">
<g filter="url(#filter0_d_3_8)">
<path d="M15.5 50.7031C4.76562 46.7188 3.875 34.8594 6.54688 28.2969C12.8281 13.1094 37.4375 3.73438 58.7188 3.875C99.0312 4.15625 103.438 36.4531 72.2656 54.0781C56 63.2188 34.25 68.6094 17.2812 68.6094C7.01562 68.6094 7.01562 57.5938 10.7188 58.2969C24.3125 60.9219 50.2344 55.7656 67.2031 45.9219C90.6875 32.4219 90.5938 11.8438 57.3125 12.9688C39.7812 13.5312 19.1094 20.6094 14.0469 31.5781C12.0781 35.7969 13.0625 41.6562 23.9844 43.9062C26.5625 44.4688 23.1875 53.5625 15.5 50.7031ZM43.0156 22.8594C47.5156 18.0312 60.3594 20.0938 55.6719 24.5469C45.6406 34.2031 40.3906 43.0625 38.8906 49.625C38.6094 50.8906 37.3438 50.8906 36.125 50.375C25.7656 46.0625 37.0625 29.1875 43.0156 22.8594ZM94.1094 38.1875C97.1562 34.25 105.781 36.5938 104.047 39.2656C101.375 43.4844 98.1406 49.3438 95.9375 53.75C94.4375 56.7031 94.4844 59.6094 98.2344 56.7969C101.938 54.0312 107.703 46.8594 109.156 44.75C110.516 42.7344 113.234 42.1719 111.828 45.6406C109.859 50.3281 103.203 58.9062 98.1875 61.7188C90.5469 66.0781 81.7812 62.1875 86.6094 51.3125C88.5312 47 91.2031 42.0312 94.1094 38.1875ZM99.5938 25.7188C101.703 22.625 105.547 21.2188 108.219 22.5312C110.891 23.8438 111.359 27.4062 109.297 30.5C107.188 33.5938 103.344 35 100.672 33.6875C98 32.375 97.5312 28.8125 99.5938 25.7188ZM129.031 45.9688C120.312 42.5469 112.391 46.625 118.719 48.4062C123.172 49.7188 129.172 52.2031 128.375 56.7031C127.203 63.7344 107.844 66.0312 104.75 57.875C104.047 56.0938 105.031 54.0781 106.859 55.0156C113.281 58.2969 125.703 55.0625 115.016 51.7344C98.6562 46.6719 113.047 33.2188 128.422 37.5312C133.391 38.9375 131.938 47.0938 129.031 45.9688ZM130.484 55.1562C135.641 39.8281 151.391 14.4219 162.453 6.40625C170.141 0.78125 178.297 4.48438 173.703 13.625C168.969 23.1406 156.312 33.6875 149.094 38.6562C147.828 41.0469 146.797 43.0156 145.953 44.7031C150.172 42.2188 156.5 38.4688 157.719 35.75C159.078 32.7969 167.984 37.1562 164.75 41.5625C162.266 44.9375 155.844 47.6562 149.703 49.6719C150.969 56.0938 159.828 55.0156 169.344 43.4375C170.234 42.3125 172.391 42.7812 171.594 44.5156C164.328 61.0625 144.031 69.3125 142.859 51.4531C141.922 53.75 141.5 55.25 140.516 57.7812C139.156 61.2031 128.844 60.0781 130.484 55.1562ZM153.734 30.0312C160.953 22.7188 164.938 19.7188 168.078 14.5625C169.812 11.6562 169.484 10.5312 166.625 13.5312C161.938 18.5 154.484 28.5781 153.734 30.0312ZM174.641 51.4531C170.938 59.1406 182.938 62.8438 197.422 44.7031C198.922 42.8281 201.969 43.25 200.234 45.9219C189.641 62.6562 175.625 66.875 169.25 63.0312C159.734 57.2656 166.953 42.1719 175.672 37.9531C184.438 33.7812 195.359 38.6094 190.906 46.625C186.641 54.3594 177.031 56 174.641 51.4531ZM175.859 49.2031C179.516 50.75 183.453 47.1406 185.141 44.1406C186.5 41.6562 185.609 39.7344 182.375 42.0312C181.062 42.9688 177.734 46.1562 175.859 49.2031ZM236.516 33.8281C243.734 26.5156 249.5 19.7188 252.641 14.5625C254.422 11.6562 254.094 10.5312 251.234 13.5312C246.547 18.5 237.266 32.375 236.516 33.8281ZM210.453 33.8281C217.672 26.5156 223.438 19.7188 226.578 14.5625C228.359 11.6562 228.031 10.5312 225.172 13.5312C220.484 18.5 211.203 32.375 210.453 33.8281ZM215.938 34.1094C220.766 33.7812 224.938 34.0625 226.812 34.2031C232.203 22.8594 239.938 11.2344 247.016 6.35938C254.891 0.921875 262.859 4.4375 258.266 13.625C254.984 20.1406 247.672 28.7188 241.016 35.0938C242.047 35.375 242.984 35.75 243.781 36.2188C246.219 37.625 246.125 40.8125 245.422 42.3594C245.094 43.0625 244.625 43.2031 244.25 43.1562C240.828 42.5 236.75 42.2188 232.625 42.3594C229.906 46.7188 226.297 60.125 237.406 54.3125C241.297 52.25 247.391 45.9219 248.234 44.9844C250.016 43.0156 251.797 43.0156 249.922 46.625C248.328 49.7188 243.078 56.0469 239.516 58.9062C230.656 66.0781 218.75 62.5156 220.578 51.4062C218.375 54.2188 215.609 57.1719 213.453 58.9062C204.547 66.0781 192.594 62.5156 194.516 51.3125C194.891 49.0625 195.641 46.3438 196.719 43.3906C196.297 43.4844 195.922 43.5781 195.547 43.625C191.984 44.4219 193.109 35.75 196.391 35.1875C197.516 35 198.875 34.8125 200.422 34.6719C205.812 23.3281 213.875 11.2344 220.953 6.35938C228.828 0.921875 236.797 4.4375 232.203 13.625C229.062 19.8125 222.312 27.875 215.938 34.1094ZM223.062 42.5938C222.688 42.6875 216.734 42.3125 206.234 42.9219C203.562 47.7969 200.703 59.8906 211.344 54.3125C215.234 52.25 219.875 47.6562 223.062 42.5938ZM252.641 51.4531C248.938 59.1406 260.938 62.8438 275.422 44.7031C276.922 42.8281 279.969 43.25 278.234 45.9219C267.641 62.6562 253.625 66.875 247.25 63.0312C237.734 57.2656 244.953 42.1719 253.672 37.9531C262.438 33.7812 273.359 38.6094 268.906 46.625C264.641 54.3594 255.031 56 252.641 51.4531ZM253.859 49.2031C257.516 50.75 261.453 47.1406 263.141 44.1406C264.5 41.6562 263.609 39.7344 260.375 42.0312C259.062 42.9688 255.734 46.1562 253.859 49.2031Z" fill="white"/>
</g>
<defs>
<filter id="filter0_d_3_8" x="0.375" y="0.78125" width="283.094" height="76.0312" filterUnits="userSpaceOnUse" color-interpolation-filters="sRGB">
<feFlood flood-opacity="0" result="BackgroundImageFix"/>
<feColorMatrix in="SourceAlpha" type="matrix" values="0 0 0 0 0 0 0 0 0 0 0 0 0 0 0 0 0 0 127 0" result="hardAlpha"/>
<feOffset dy="4"/>
<feGaussianBlur stdDeviation="1.75"/>
<feComposite in2="hardAlpha" operator="out"/>
<feColorMatrix type="matrix" values="0 0 0 0 0 0 0 0 0 0 0 0 0 0 0 0 0 0 0.6 0"/>
<feBlend mode="normal" in2="BackgroundImageFix" result="effect1_dropShadow_3_8"/>
<feBlend mode="normal" in="SourceGraphic" in2="effect1_dropShadow_3_8" result="shape"/>
</filter>
</defs>
</svg>
